<svg xmlns="http://www.w3.org/2000/svg" version="1.1" xmlns:xlink="http://www.w3.org/1999/xlink" xmlns:svgjs="http://svgjs.com/svgjs" width="512" height="512" x="0" y="0" viewBox="0 0 512.06 512.06" style="enable-background:new 0 0 512 512" xml:space="preserve" class=""><rect width="512.06" height="512.06" fill="#3f535c" shape="square"></rect><g transform="matrix(0.7,0,0,0.7,76.80907030105593,74.71724567413332)"><ellipse xmlns="http://www.w3.org/2000/svg" cx="256" cy="45.206" rx="45.177" ry="45.176" transform="matrix(.924 -.383 .383 .924 2.187 101.408)" fill="#ffffff" data-original="#000000" style=""></ellipse><path xmlns="http://www.w3.org/2000/svg" d="m176.969 222.03h158.062c8.263 0 14.327-7.762 12.328-15.78l-11.803-47.339c-5.645-22.64-25.981-38.528-49.314-38.528h-60.485c-23.333 0-43.669 15.888-49.314 38.528l-11.803 47.339c-1.999 8.017 4.066 15.78 12.329 15.78z" fill="#ffffff" data-original="#000000" style=""></path><path xmlns="http://www.w3.org/2000/svg" d="m478.234 249.932c-8.603 0-17.241 3.256-23.887 9.903l-46.435 46.437c3.862 7.352 6.06 15.71 6.06 24.575 0 29.245-23.792 53.037-53.037 53.037h-126.935c-8.284 0-15-6.716-15-15s6.716-15 15-15h126.934c12.703 0 23.037-10.334 23.037-23.037s-10.334-23.037-23.037-23.037h-62.097c-11.276 0-21.765-5.066-28.774-13.899l-6.845-8.623c-6.728-6.092-15.528-9.544-24.746-9.544h-44.851c-13.107 0-25.789 4.655-35.784 13.135l-60.685 51.491 63.885 110.652c.326.565.629 1.138.93 1.71h172.78c14.713 0 28.819-5.862 39.199-16.289l128.266-128.853c11.959-12.014 13.172-31.027 2.836-44.463-6.711-8.725-16.738-13.194-26.814-13.195z" fill="#ffffff" data-original="#000000" style=""></path><path xmlns="http://www.w3.org/2000/svg" d="m135.058 466.021-70.013-121.264c-3.704-6.416-10.427-10.003-17.339-10.003-3.393 0-6.831.864-9.981 2.683l-27.721 16.005c-9.566 5.523-12.843 17.755-7.32 27.32l70.012 121.265c3.704 6.416 10.427 10.003 17.339 10.003 3.393 0 6.832-.864 9.981-2.683l27.721-16.005c9.566-5.523 12.843-17.755 7.321-27.321z" fill="#ffffff" data-original="#000000" style=""></path></g></svg>